<mxfile host="app.diagrams.net" modified="2021-09-30T13:52:09.593Z" agent="5.0 (Windows NT 10.0; Win64; x64) AppleWebKit/537.36 (KHTML, like Gecko) Chrome/94.0.4606.61 Safari/537.36 Edg/94.0.992.31" etag="MBlqzuRqn3GSxveostAP" version="15.3.8" type="github">
  <diagram id="ZoqOr5TsfRneDORht1lT" name="Page-1">
    <mxGraphModel dx="1038" dy="579" grid="1" gridSize="10" guides="1" tooltips="1" connect="1" arrows="1" fold="1" page="1" pageScale="1" pageWidth="850" pageHeight="1100" math="0" shadow="0">
      <root>
        <mxCell id="0" />
        <mxCell id="1" parent="0" />
        <mxCell id="WRzGACYP6k22_EVl_JQK-3" style="edgeStyle=orthogonalEdgeStyle;rounded=0;orthogonalLoop=1;jettySize=auto;html=1;entryX=0.5;entryY=0;entryDx=0;entryDy=0;" edge="1" parent="1" source="WRzGACYP6k22_EVl_JQK-1" target="WRzGACYP6k22_EVl_JQK-2">
          <mxGeometry relative="1" as="geometry" />
        </mxCell>
        <mxCell id="WRzGACYP6k22_EVl_JQK-1" value="Start" style="rounded=1;whiteSpace=wrap;html=1;" vertex="1" parent="1">
          <mxGeometry x="60" y="20" width="90" height="40" as="geometry" />
        </mxCell>
        <mxCell id="WRzGACYP6k22_EVl_JQK-5" style="edgeStyle=orthogonalEdgeStyle;rounded=0;orthogonalLoop=1;jettySize=auto;html=1;entryX=0.5;entryY=0;entryDx=0;entryDy=0;" edge="1" parent="1" source="WRzGACYP6k22_EVl_JQK-2" target="WRzGACYP6k22_EVl_JQK-4">
          <mxGeometry relative="1" as="geometry" />
        </mxCell>
        <mxCell id="WRzGACYP6k22_EVl_JQK-2" value="Enter Number for Operand:" style="shape=parallelogram;perimeter=parallelogramPerimeter;whiteSpace=wrap;html=1;fixedSize=1;" vertex="1" parent="1">
          <mxGeometry x="45" y="130" width="120" height="60" as="geometry" />
        </mxCell>
        <mxCell id="WRzGACYP6k22_EVl_JQK-8" style="edgeStyle=orthogonalEdgeStyle;rounded=0;orthogonalLoop=1;jettySize=auto;html=1;entryX=0.5;entryY=0;entryDx=0;entryDy=0;" edge="1" parent="1" source="WRzGACYP6k22_EVl_JQK-4" target="WRzGACYP6k22_EVl_JQK-6">
          <mxGeometry relative="1" as="geometry" />
        </mxCell>
        <mxCell id="WRzGACYP6k22_EVl_JQK-4" value="User enters number" style="shape=parallelogram;perimeter=parallelogramPerimeter;whiteSpace=wrap;html=1;fixedSize=1;" vertex="1" parent="1">
          <mxGeometry x="45" y="230" width="120" height="60" as="geometry" />
        </mxCell>
        <mxCell id="WRzGACYP6k22_EVl_JQK-11" style="edgeStyle=orthogonalEdgeStyle;rounded=0;orthogonalLoop=1;jettySize=auto;html=1;entryX=0;entryY=0.5;entryDx=0;entryDy=0;" edge="1" parent="1" source="WRzGACYP6k22_EVl_JQK-6">
          <mxGeometry relative="1" as="geometry">
            <mxPoint x="270" y="360" as="targetPoint" />
          </mxGeometry>
        </mxCell>
        <mxCell id="WRzGACYP6k22_EVl_JQK-12" value="No and No&lt;br&gt;or Yes and No" style="edgeLabel;html=1;align=center;verticalAlign=middle;resizable=0;points=[];" vertex="1" connectable="0" parent="WRzGACYP6k22_EVl_JQK-11">
          <mxGeometry x="0.2213" y="2" relative="1" as="geometry">
            <mxPoint as="offset" />
          </mxGeometry>
        </mxCell>
        <mxCell id="WRzGACYP6k22_EVl_JQK-14" style="edgeStyle=orthogonalEdgeStyle;rounded=0;orthogonalLoop=1;jettySize=auto;html=1;entryX=0.5;entryY=0;entryDx=0;entryDy=0;" edge="1" parent="1" source="WRzGACYP6k22_EVl_JQK-6" target="WRzGACYP6k22_EVl_JQK-13">
          <mxGeometry relative="1" as="geometry">
            <Array as="points">
              <mxPoint x="105" y="480" />
              <mxPoint x="105" y="480" />
            </Array>
          </mxGeometry>
        </mxCell>
        <mxCell id="WRzGACYP6k22_EVl_JQK-15" value="Yes and Yes" style="edgeLabel;html=1;align=center;verticalAlign=middle;resizable=0;points=[];" vertex="1" connectable="0" parent="WRzGACYP6k22_EVl_JQK-14">
          <mxGeometry x="-0.2836" y="-2" relative="1" as="geometry">
            <mxPoint as="offset" />
          </mxGeometry>
        </mxCell>
        <mxCell id="WRzGACYP6k22_EVl_JQK-6" value="Is it a number?&lt;br&gt;And&amp;nbsp;&lt;br&gt;-1000&amp;lt;x&amp;lt;1000" style="rhombus;whiteSpace=wrap;html=1;" vertex="1" parent="1">
          <mxGeometry x="65" y="320" width="80" height="80" as="geometry" />
        </mxCell>
        <mxCell id="WRzGACYP6k22_EVl_JQK-17" style="edgeStyle=orthogonalEdgeStyle;rounded=0;orthogonalLoop=1;jettySize=auto;html=1;" edge="1" parent="1" source="WRzGACYP6k22_EVl_JQK-13" target="WRzGACYP6k22_EVl_JQK-16">
          <mxGeometry relative="1" as="geometry" />
        </mxCell>
        <mxCell id="WRzGACYP6k22_EVl_JQK-13" value="Enter an Operator (+,-,/,*):" style="shape=parallelogram;perimeter=parallelogramPerimeter;whiteSpace=wrap;html=1;fixedSize=1;" vertex="1" parent="1">
          <mxGeometry x="45" y="470" width="120" height="60" as="geometry" />
        </mxCell>
        <mxCell id="WRzGACYP6k22_EVl_JQK-20" style="edgeStyle=orthogonalEdgeStyle;rounded=0;orthogonalLoop=1;jettySize=auto;html=1;" edge="1" parent="1" source="WRzGACYP6k22_EVl_JQK-16" target="WRzGACYP6k22_EVl_JQK-19">
          <mxGeometry relative="1" as="geometry" />
        </mxCell>
        <mxCell id="WRzGACYP6k22_EVl_JQK-16" value="User Enters an Operator" style="shape=parallelogram;perimeter=parallelogramPerimeter;whiteSpace=wrap;html=1;fixedSize=1;" vertex="1" parent="1">
          <mxGeometry x="45" y="570" width="120" height="60" as="geometry" />
        </mxCell>
        <mxCell id="WRzGACYP6k22_EVl_JQK-21" style="edgeStyle=orthogonalEdgeStyle;rounded=0;orthogonalLoop=1;jettySize=auto;html=1;" edge="1" parent="1" source="WRzGACYP6k22_EVl_JQK-19">
          <mxGeometry relative="1" as="geometry">
            <mxPoint x="310" y="400" as="targetPoint" />
          </mxGeometry>
        </mxCell>
        <mxCell id="WRzGACYP6k22_EVl_JQK-22" value="No" style="edgeLabel;html=1;align=center;verticalAlign=middle;resizable=0;points=[];" vertex="1" connectable="0" parent="WRzGACYP6k22_EVl_JQK-21">
          <mxGeometry x="-0.2337" y="-4" relative="1" as="geometry">
            <mxPoint as="offset" />
          </mxGeometry>
        </mxCell>
        <mxCell id="WRzGACYP6k22_EVl_JQK-24" style="edgeStyle=orthogonalEdgeStyle;rounded=0;orthogonalLoop=1;jettySize=auto;html=1;" edge="1" parent="1" source="WRzGACYP6k22_EVl_JQK-19" target="WRzGACYP6k22_EVl_JQK-23">
          <mxGeometry relative="1" as="geometry" />
        </mxCell>
        <mxCell id="WRzGACYP6k22_EVl_JQK-26" value="Yes" style="edgeLabel;html=1;align=center;verticalAlign=middle;resizable=0;points=[];" vertex="1" connectable="0" parent="WRzGACYP6k22_EVl_JQK-24">
          <mxGeometry x="-0.24" y="2" relative="1" as="geometry">
            <mxPoint as="offset" />
          </mxGeometry>
        </mxCell>
        <mxCell id="WRzGACYP6k22_EVl_JQK-19" value="Is it the Operators +,-,/, or *?" style="rhombus;whiteSpace=wrap;html=1;" vertex="1" parent="1">
          <mxGeometry x="65" y="680" width="80" height="80" as="geometry" />
        </mxCell>
        <mxCell id="WRzGACYP6k22_EVl_JQK-31" style="edgeStyle=orthogonalEdgeStyle;rounded=0;orthogonalLoop=1;jettySize=auto;html=1;" edge="1" parent="1" source="WRzGACYP6k22_EVl_JQK-23" target="WRzGACYP6k22_EVl_JQK-32">
          <mxGeometry relative="1" as="geometry">
            <mxPoint x="105" y="940" as="targetPoint" />
          </mxGeometry>
        </mxCell>
        <mxCell id="WRzGACYP6k22_EVl_JQK-23" value="Enter Number for Operand:" style="shape=parallelogram;perimeter=parallelogramPerimeter;whiteSpace=wrap;html=1;fixedSize=1;" vertex="1" parent="1">
          <mxGeometry x="45" y="800" width="120" height="60" as="geometry" />
        </mxCell>
        <mxCell id="WRzGACYP6k22_EVl_JQK-29" style="edgeStyle=orthogonalEdgeStyle;rounded=0;orthogonalLoop=1;jettySize=auto;html=1;" edge="1" parent="1" source="WRzGACYP6k22_EVl_JQK-28" target="WRzGACYP6k22_EVl_JQK-30">
          <mxGeometry relative="1" as="geometry">
            <mxPoint x="440" y="370" as="targetPoint" />
          </mxGeometry>
        </mxCell>
        <mxCell id="WRzGACYP6k22_EVl_JQK-28" value="Invalid Input" style="shape=parallelogram;perimeter=parallelogramPerimeter;whiteSpace=wrap;html=1;fixedSize=1;" vertex="1" parent="1">
          <mxGeometry x="260" y="340" width="120" height="60" as="geometry" />
        </mxCell>
        <mxCell id="WRzGACYP6k22_EVl_JQK-30" value="Terminate Program" style="whiteSpace=wrap;html=1;aspect=fixed;" vertex="1" parent="1">
          <mxGeometry x="400" y="330" width="80" height="80" as="geometry" />
        </mxCell>
        <mxCell id="WRzGACYP6k22_EVl_JQK-34" style="edgeStyle=orthogonalEdgeStyle;rounded=0;orthogonalLoop=1;jettySize=auto;html=1;entryX=0.5;entryY=0;entryDx=0;entryDy=0;" edge="1" parent="1" source="WRzGACYP6k22_EVl_JQK-32" target="WRzGACYP6k22_EVl_JQK-33">
          <mxGeometry relative="1" as="geometry" />
        </mxCell>
        <mxCell id="WRzGACYP6k22_EVl_JQK-32" value="User enters Operand" style="shape=parallelogram;perimeter=parallelogramPerimeter;whiteSpace=wrap;html=1;fixedSize=1;" vertex="1" parent="1">
          <mxGeometry x="45" y="910" width="120" height="60" as="geometry" />
        </mxCell>
        <mxCell id="WRzGACYP6k22_EVl_JQK-35" style="edgeStyle=orthogonalEdgeStyle;rounded=0;orthogonalLoop=1;jettySize=auto;html=1;entryX=0.417;entryY=1;entryDx=0;entryDy=0;entryPerimeter=0;" edge="1" parent="1" source="WRzGACYP6k22_EVl_JQK-33" target="WRzGACYP6k22_EVl_JQK-28">
          <mxGeometry relative="1" as="geometry" />
        </mxCell>
        <mxCell id="WRzGACYP6k22_EVl_JQK-36" value="No" style="edgeLabel;html=1;align=center;verticalAlign=middle;resizable=0;points=[];" vertex="1" connectable="0" parent="WRzGACYP6k22_EVl_JQK-35">
          <mxGeometry x="-0.5699" y="-2" relative="1" as="geometry">
            <mxPoint as="offset" />
          </mxGeometry>
        </mxCell>
        <mxCell id="WRzGACYP6k22_EVl_JQK-37" style="edgeStyle=orthogonalEdgeStyle;rounded=0;orthogonalLoop=1;jettySize=auto;html=1;" edge="1" parent="1" source="WRzGACYP6k22_EVl_JQK-33" target="WRzGACYP6k22_EVl_JQK-39">
          <mxGeometry relative="1" as="geometry">
            <mxPoint x="105" y="1160" as="targetPoint" />
          </mxGeometry>
        </mxCell>
        <mxCell id="WRzGACYP6k22_EVl_JQK-38" value="Yes" style="edgeLabel;html=1;align=center;verticalAlign=middle;resizable=0;points=[];" vertex="1" connectable="0" parent="WRzGACYP6k22_EVl_JQK-37">
          <mxGeometry x="-0.2727" y="1" relative="1" as="geometry">
            <mxPoint as="offset" />
          </mxGeometry>
        </mxCell>
        <mxCell id="WRzGACYP6k22_EVl_JQK-33" value="Is it a Number between -1000 and 1000?" style="rhombus;whiteSpace=wrap;html=1;" vertex="1" parent="1">
          <mxGeometry x="65" y="1020" width="80" height="80" as="geometry" />
        </mxCell>
        <mxCell id="WRzGACYP6k22_EVl_JQK-41" style="edgeStyle=orthogonalEdgeStyle;rounded=0;orthogonalLoop=1;jettySize=auto;html=1;" edge="1" parent="1" source="WRzGACYP6k22_EVl_JQK-39" target="WRzGACYP6k22_EVl_JQK-40">
          <mxGeometry relative="1" as="geometry" />
        </mxCell>
        <mxCell id="WRzGACYP6k22_EVl_JQK-39" value="Calculate all of users input&lt;br&gt;(operand1+ operator + operand2)" style="whiteSpace=wrap;html=1;aspect=fixed;" vertex="1" parent="1">
          <mxGeometry x="65" y="1140" width="80" height="80" as="geometry" />
        </mxCell>
        <mxCell id="WRzGACYP6k22_EVl_JQK-42" style="edgeStyle=orthogonalEdgeStyle;rounded=0;orthogonalLoop=1;jettySize=auto;html=1;" edge="1" parent="1" source="WRzGACYP6k22_EVl_JQK-40" target="WRzGACYP6k22_EVl_JQK-43">
          <mxGeometry relative="1" as="geometry">
            <mxPoint x="105" y="1420" as="targetPoint" />
          </mxGeometry>
        </mxCell>
        <mxCell id="WRzGACYP6k22_EVl_JQK-40" value="Round to the 2nd decimal place" style="whiteSpace=wrap;html=1;aspect=fixed;" vertex="1" parent="1">
          <mxGeometry x="65" y="1270" width="80" height="80" as="geometry" />
        </mxCell>
        <mxCell id="WRzGACYP6k22_EVl_JQK-43" value="Display answer" style="shape=parallelogram;perimeter=parallelogramPerimeter;whiteSpace=wrap;html=1;fixedSize=1;" vertex="1" parent="1">
          <mxGeometry x="45" y="1390" width="120" height="60" as="geometry" />
        </mxCell>
      </root>
    </mxGraphModel>
  </diagram>
</mxfile>
